# xmcd CD database file
#
# Track frame offsets:
#	150
#	37322
#	60383
#	98519
#	154643
#	203120
#
# Disc length: 3022 seconds
#
# Revision: 0
# Processed by: cddbd v1.5.1PL0 Copyright (c) Steve Scherf et al.
# Submitted via: CDex 1.51
#
DISCID=450bcc06
DTITLE=Brad Mehldau Trio - Live in Montreal 2000
DYEAR=2000
DGENRE=Jazz
TTITLE0=Resignation
TTITLE1=Quit
TTITLE2=Untitled
TTITLE3=Alone Together
TTITLE4=In the wee small hours in the morning
TTITLE5=Riverman
EXTD=YEAR: 2000
EXTT0=
EXTT1=
EXTT2=
EXTT3=
EXTT4=
EXTT5=
PLAYORDER=
